<svg width="81" height="102" viewBox="0 0 81 102" fill="none" xmlns="http://www.w3.org/2000/svg">
<rect x="3.04869" y="3.67002" width="74.555" height="94.6598" rx="37.2775" fill="#FFECD8" stroke="black" stroke-width="5.44503"/>
<path d="M38.5323 34.049L32.8928 14.5444C32.6566 13.7274 33.1635 12.8815 33.9955 12.7047V12.7047C34.8274 12.5279 35.6346 13.0944 35.7511 13.9369L38.5323 34.049Z" fill="#237946"/>
<path d="M36.803 34.6552L27.2315 16.7494C26.8305 15.9993 27.1505 15.0666 27.9275 14.7206V14.7206C28.7045 14.3747 29.6118 14.761 29.901 15.5609L36.803 34.6552Z" fill="#237946"/>
<path d="M35.1375 35.5987L22.0523 20.0742C21.5041 19.4239 21.6232 18.445 22.3113 17.945V17.945C22.9994 17.4451 23.9672 17.6343 24.4163 18.3566L35.1375 35.5987Z" fill="#237946"/>
<path d="M33.7464 36.7957L17.7194 24.331C17.048 23.8088 16.961 22.8266 17.5301 22.1945V22.1945C18.0992 21.5624 19.0852 21.5463 19.6747 22.1594L33.7464 36.7957Z" fill="#237946"/>
<path d="M32.6953 38.307L14.427 29.4469C13.6617 29.0757 13.3724 28.133 13.7976 27.3965V27.3965C14.2229 26.6599 15.184 26.4391 15.888 26.9163L32.6953 38.307Z" fill="#237946"/>
<path d="M31.8963 40.0517L12.1851 35.1834C11.3594 34.9795 10.8804 34.1175 11.1432 33.3086V33.3086C11.406 32.4997 12.3002 32.084 13.0881 32.4043L31.8963 40.0517Z" fill="#237946"/>
<path d="M31.4858 41.8775L11.1932 41.2137C10.3431 41.1859 9.69535 40.4424 9.78426 39.5966V39.5966C9.87316 38.7507 10.6614 38.1581 11.4986 38.3076L31.4858 41.8775Z" fill="#237946"/>
<path d="M49.2807 41.8952L69.2679 38.3254C70.1052 38.1758 70.8934 38.7684 70.9823 39.6143V39.6143C71.0712 40.4602 70.4235 41.2037 69.5734 41.2315L49.2807 41.8952Z" fill="#237946"/>
<path d="M48.8856 40.0593L67.6938 32.4119C68.4817 32.0916 69.3759 32.5073 69.6387 33.3162V33.3162C69.9015 34.1252 69.4225 34.9871 68.5968 35.191L48.8856 40.0593Z" fill="#237946"/>
<path d="M48.1454 38.3629L64.9527 26.9722C65.6567 26.495 66.6178 26.7157 67.0431 27.4523V27.4523C67.4683 28.1889 67.179 29.1316 66.4137 29.5028L48.1454 38.3629Z" fill="#237946"/>
<path d="M47.0735 36.7988L61.1452 22.1625C61.7347 21.5494 62.7206 21.5655 63.2898 22.1976V22.1976C63.8589 22.8297 63.7718 23.8119 63.1005 24.3341L47.0735 36.7988Z" fill="#237946"/>
<path d="M45.6824 35.579L56.4035 18.3369C56.8526 17.6146 57.8204 17.4254 58.5085 17.9253V17.9253C59.1966 18.4253 59.3157 19.4042 58.7676 20.0545L45.6824 35.579Z" fill="#237946"/>
<path d="M44.052 34.6194L50.954 15.5251C51.2432 14.7252 52.1505 14.3389 52.9274 14.6848V14.6848C53.7044 15.0308 54.0245 15.9635 53.6235 16.7136L44.052 34.6194Z" fill="#237946"/>
<path d="M42.2667 34.0535L45.048 13.9414C45.1645 13.0989 45.9716 12.5324 46.8036 12.7092V12.7092C47.6355 12.8861 48.1425 13.7319 47.9062 14.549L42.2667 34.0535Z" fill="#237946"/>
<path d="M40.3395 33.8621L38.8816 13.6137C38.8207 12.7673 39.4909 12.047 40.3395 12.047V12.047C41.1881 12.047 41.8583 12.7673 41.7974 13.6137L40.3395 33.8621Z" fill="#237946"/>
<path d="M19.0787 45.8552C20.3718 44.137 21.3991 42.8528 22.1608 42.0026C22.9224 41.1347 23.5955 40.7007 24.1801 40.7007C24.5875 40.7007 25.0037 40.8955 25.4288 41.2852C25.8716 41.6749 26.2348 42.1443 26.5182 42.6934C26.8016 43.2248 26.9433 43.6765 26.9433 44.0485C26.9433 45.0581 26.5447 46.0677 25.7477 47.0774C24.9683 48.0693 23.9764 48.9638 22.7719 49.7609C23.1261 50.0974 23.4273 50.3543 23.6752 50.5314C23.9232 50.7085 24.1889 50.8502 24.4723 50.9565C25.0214 50.7794 25.7122 50.4606 26.5447 50C27.0761 50.3188 27.4835 50.6908 27.7669 51.1159C28.0503 51.541 28.192 51.9662 28.192 52.3913C28.192 53.1352 27.8555 53.7552 27.1824 54.2511C26.5093 54.7294 25.6679 54.9685 24.6583 54.9685C23.8258 54.9685 23.0553 54.7294 22.3468 54.2511C21.656 53.7552 21.0803 53.0998 20.6197 52.285C20.1769 51.4525 19.8758 50.558 19.7164 49.6015L20.2212 48.7778C21.1954 48.3881 21.9305 47.9365 22.4265 47.4228C22.9401 46.9091 23.197 46.4486 23.197 46.0412C23.197 45.864 23.1438 45.7312 23.0376 45.6426C22.949 45.5363 22.825 45.4832 22.6656 45.4832C22.2759 45.4832 21.7977 45.7489 21.2308 46.2803C20.664 46.794 19.8758 47.5999 18.8662 48.6981C18.8484 48.7158 18.6447 48.9461 18.2551 49.3889C18.2019 50.7705 18.0691 52.0459 17.8565 53.2149C17.644 54.384 17.3517 54.9685 16.9797 54.9685C16.5369 54.9685 16.0232 54.8179 15.4387 54.5168C14.8542 54.2157 14.3494 53.8614 13.9242 53.454C13.5168 53.0289 13.3131 52.6658 13.3131 52.3647C13.3131 52.1521 13.384 51.789 13.5257 51.2754C13.6674 50.744 13.8357 50.1594 14.0305 49.5218C14.7213 47.2545 15.2616 45.2264 15.6513 43.4374C15.8638 42.4454 16.0498 41.4181 16.2092 40.3553C16.4572 38.9383 16.6698 37.8489 16.8469 37.0873C17.024 36.3256 17.2454 35.6879 17.5111 35.1743C17.7945 34.6429 18.1399 34.3772 18.5473 34.3772C18.8484 34.3772 19.2913 34.5632 19.8758 34.9351C20.478 35.2894 21.0094 35.7056 21.47 36.1839C21.9305 36.6444 22.1608 37.0253 22.1608 37.3264C22.1608 37.5921 22.0634 37.8932 21.8685 38.2297C21.6914 38.5486 21.3903 39.0091 20.9651 39.6114C20.8766 39.7353 20.7083 39.9833 20.4603 40.3553C20.2301 40.7273 20.0618 41.0372 19.9555 41.2852C19.743 41.7989 19.5038 42.4543 19.2381 43.2514C18.9902 44.0485 18.7776 44.8278 18.6005 45.5895L19.0787 45.8552ZM34.4242 39.2128C34.0877 39.2128 33.6803 39.08 33.202 38.8143C32.7415 38.5309 32.343 38.2032 32.0064 37.8312C31.6699 37.4415 31.5016 37.0961 31.5016 36.795C31.5016 36.3167 31.6256 35.8385 31.8736 35.3602C32.1216 34.882 32.4315 34.5366 32.8035 34.324C32.9806 34.2355 33.264 34.1912 33.6537 34.1912C34.2914 34.1912 34.9291 34.3329 35.5667 34.6163C36.2221 34.8997 36.6207 35.254 36.7624 35.6791C36.7978 35.7676 36.8155 35.9005 36.8155 36.0776C36.8155 36.485 36.6915 36.9367 36.4435 37.4327C36.1955 37.9286 35.8856 38.3537 35.5136 38.708C35.1416 39.0445 34.7785 39.2128 34.4242 39.2128ZM32.6175 54.9685C32.157 54.9685 31.6344 54.8179 31.0499 54.5168C30.4831 54.198 29.9871 53.8349 29.562 53.4275C29.1546 53.0024 28.9509 52.6481 28.9509 52.3647C28.9509 52.0459 29.0661 51.5765 29.2963 50.9565C29.5266 50.3366 29.872 49.4863 30.3325 48.4058C30.6868 47.5733 30.9525 46.9268 31.1296 46.4663C31.3068 45.988 31.3953 45.6515 31.3953 45.4566C31.3953 45.3149 31.3068 45.1644 31.1296 45.005C30.9702 44.8278 30.7222 44.6153 30.3857 44.3673C29.996 44.0662 29.7037 43.827 29.5089 43.6499C29.3318 43.4728 29.2432 43.2868 29.2432 43.092C29.2432 42.72 29.4115 42.286 29.748 41.7901C30.1023 41.2941 30.5097 40.869 30.9702 40.5147C31.4485 40.1605 31.8559 39.9833 32.1924 39.9833C32.5998 39.9833 33.0426 40.1605 33.5209 40.5147C34.0168 40.869 34.4331 41.2941 34.7696 41.7901C35.1239 42.2683 35.301 42.658 35.301 42.9591C35.301 43.7385 35.0973 44.8544 34.6899 46.3069C34.3003 47.7416 33.7954 49.2915 33.1755 50.9565C33.6006 50.7617 33.9726 50.558 34.2914 50.3454C34.6102 50.1329 35.0531 49.8052 35.6199 49.3623C36.417 49.628 37.0015 50.0089 37.3735 50.5048C37.7454 50.9831 37.9314 51.5056 37.9314 52.0724C37.9314 52.533 37.6303 52.9847 37.028 53.4275C36.4435 53.8703 35.7261 54.2423 34.8759 54.5434C34.0257 54.8268 33.2729 54.9685 32.6175 54.9685ZM39.3334 52.3381C39.3334 51.913 39.4396 51.2311 39.6522 50.2923C39.6699 50.1506 39.7319 49.8052 39.8382 49.2561C39.9445 48.707 40.0242 48.1756 40.0773 47.6619C40.1304 47.1482 40.157 46.67 40.157 46.2272C40.157 46.05 40.0685 45.8817 39.8913 45.7223C39.7319 45.5452 39.4662 45.3061 39.0942 45.005C38.74 44.757 38.4654 44.5444 38.2706 44.3673C38.0935 44.1724 38.0049 43.9865 38.0049 43.8093C38.0049 43.4196 38.1643 42.9857 38.4831 42.5074C38.8197 42.0115 39.2271 41.5864 39.7053 41.2321C40.2013 40.8778 40.653 40.7007 41.0604 40.7007C41.4678 40.7007 41.9283 40.8601 42.442 41.179C42.9557 41.4978 43.3985 41.8698 43.7705 42.2949C44.1424 42.72 44.3284 43.0742 44.3284 43.3577C44.3284 45.8552 43.8325 48.583 42.8405 51.541L43.3454 51.8067C43.7173 51.2399 44.0539 50.6465 44.355 50.0266C44.6738 49.4066 44.9484 48.8487 45.1786 48.3527C45.4089 47.839 45.5595 47.5113 45.6303 47.3696C46.0909 46.3423 46.4451 45.6072 46.6931 45.1644C46.9588 44.7215 47.2068 44.5001 47.4371 44.5001C47.685 44.5001 48.0127 44.6418 48.4201 44.9252C48.8452 45.1909 49.2172 45.5009 49.536 45.8552C49.8726 46.1917 50.0409 46.4486 50.0409 46.6257C50.0409 48.4147 49.9877 49.9026 49.8814 51.0894C51.511 49.69 52.7509 47.6885 53.6012 45.0847C52.8041 44.6418 51.7324 44.2522 50.3863 43.9156C50.1737 43.4019 50.0674 42.9237 50.0674 42.4809C50.0674 41.7369 50.3243 41.1258 50.8379 40.6476C51.3693 40.1516 52.0779 39.9125 52.9635 39.9302C54.2211 40.3907 55.2219 41.0461 55.9659 41.8963C56.7098 42.7288 57.0818 43.6233 57.0818 44.5798C57.0818 45.7843 56.7098 47.2191 55.9659 48.8841C55.2396 50.5491 54.3097 51.9839 53.1761 53.1884C52.0424 54.3751 50.9177 54.9685 49.8017 54.9685C49.412 54.9685 49.0224 54.7471 48.6327 54.3043C48.243 53.8437 47.9242 53.2503 47.6762 52.5241C47.4282 51.7802 47.3042 50.9919 47.3042 50.1594C47.3042 49.5926 47.3485 49.1144 47.4371 48.7247C46.7994 50.372 46.0643 51.8245 45.2318 53.0821C44.417 54.3397 43.6465 54.9685 42.9202 54.9685C42.6545 54.9685 42.2294 54.8002 41.6449 54.4637C41.0604 54.1271 40.529 53.7463 40.0507 53.3212C39.5725 52.8961 39.3334 52.5684 39.3334 52.3381ZM63.1483 39.2128C62.8118 39.2128 62.4044 39.08 61.9261 38.8143C61.4656 38.5309 61.067 38.2032 60.7305 37.8312C60.394 37.4415 60.2257 37.0961 60.2257 36.795C60.2257 36.3167 60.3497 35.8385 60.5977 35.3602C60.8456 34.882 61.1556 34.5366 61.5276 34.324C61.7047 34.2355 61.9881 34.1912 62.3778 34.1912C63.0155 34.1912 63.6531 34.3329 64.2908 34.6163C64.9462 34.8997 65.3447 35.254 65.4864 35.6791C65.5219 35.7676 65.5396 35.9005 65.5396 36.0776C65.5396 36.485 65.4156 36.9367 65.1676 37.4327C64.9196 37.9286 64.6096 38.3537 64.2377 38.708C63.8657 39.0445 63.5026 39.2128 63.1483 39.2128ZM61.3416 54.9685C60.8811 54.9685 60.3585 54.8179 59.774 54.5168C59.2072 54.198 58.7112 53.8349 58.2861 53.4275C57.8787 53.0024 57.675 52.6481 57.675 52.3647C57.675 52.0459 57.7901 51.5765 58.0204 50.9565C58.2507 50.3366 58.5961 49.4863 59.0566 48.4058C59.4109 47.5733 59.6766 46.9268 59.8537 46.4663C60.0308 45.988 60.1194 45.6515 60.1194 45.4566C60.1194 45.3149 60.0308 45.1644 59.8537 45.005C59.6943 44.8278 59.4463 44.6153 59.1098 44.3673C58.7201 44.0662 58.4278 43.827 58.233 43.6499C58.0558 43.4728 57.9673 43.2868 57.9673 43.092C57.9673 42.72 58.1355 42.286 58.4721 41.7901C58.8264 41.2941 59.2338 40.869 59.6943 40.5147C60.1725 40.1605 60.5799 39.9833 60.9165 39.9833C61.3239 39.9833 61.7667 40.1605 62.245 40.5147C62.7409 40.869 63.1572 41.2941 63.4937 41.7901C63.848 42.2683 64.0251 42.658 64.0251 42.9591C64.0251 43.7385 63.8214 44.8544 63.414 46.3069C63.0243 47.7416 62.5195 49.2915 61.8996 50.9565C62.3247 50.7617 62.6966 50.558 63.0155 50.3454C63.3343 50.1329 63.7771 49.8052 64.3439 49.3623C65.141 49.628 65.7256 50.0089 66.0975 50.5048C66.4695 50.9831 66.6555 51.5056 66.6555 52.0724C66.6555 52.533 66.3544 52.9847 65.7521 53.4275C65.1676 53.8703 64.4502 54.2423 63.6 54.5434C62.7498 54.8268 61.997 54.9685 61.3416 54.9685Z" fill="#AF4F1A"/>
<path fill-rule="evenodd" clip-rule="evenodd" d="M80.3261 61.1458C80.2756 83.1942 62.3864 101.052 40.3262 101.052C18.2348 101.052 0.326172 83.1438 0.326172 61.0524V57.7014H80.3261V61.1458Z" fill="#237946"/>
<path d="M31.6163 66.6011C31.6324 66.6212 31.6404 66.6372 31.6404 66.6493C31.6444 66.6573 31.6464 66.6793 31.6464 66.7154V73.9605C31.6464 74.2694 31.7286 74.466 31.8931 74.5502C32.0576 74.6345 32.3645 74.6846 32.8138 74.7007V74.8691H29.4199V74.6886C29.9054 74.6645 30.2223 74.5984 30.3707 74.49C30.5191 74.3817 30.5934 74.147 30.5934 73.786V68.2138C30.5934 68.0212 30.5693 67.8748 30.5211 67.7745C30.473 67.6742 30.3687 67.6241 30.2082 67.6241C30.1039 67.6241 29.9675 67.6542 29.799 67.7144C29.6346 67.7705 29.4801 67.8307 29.3357 67.8949V67.7264L31.5441 66.6011H31.6163ZM37.5763 71.4211C37.8491 71.4211 38.1299 71.3449 38.4187 71.1925C38.7116 71.04 38.8781 70.9116 38.9182 70.8073C38.9342 70.7672 38.9483 70.6188 38.9603 70.362C38.9723 70.1013 38.9784 69.8907 38.9784 69.7302C38.9784 68.8958 38.8379 68.2178 38.5571 67.6963C38.2763 67.1748 37.8651 66.914 37.3235 66.914C36.9304 66.914 36.6115 67.0925 36.3668 67.4496C36.1261 67.8066 36.0057 68.3402 36.0057 69.0502C36.0057 69.6359 36.118 70.1775 36.3427 70.675C36.5714 71.1724 36.9826 71.4211 37.5763 71.4211ZM37.4078 66.571C38.2904 66.571 38.9723 66.9241 39.4537 67.6301C39.9351 68.3321 40.1758 69.1164 40.1758 69.9829C40.1758 70.5927 40.0615 71.2125 39.8328 71.8423C39.6042 72.4722 39.2712 73.0338 38.8339 73.5272C38.3245 74.0969 37.6786 74.5201 36.8963 74.7969C36.459 74.9534 35.9074 75.0737 35.2415 75.158L35.1813 74.9173C35.5985 74.821 35.9455 74.7187 36.2223 74.6104C36.7198 74.4138 37.119 74.1731 37.4198 73.8883C37.8451 73.4831 38.184 73.0318 38.4368 72.5344C38.6935 72.0329 38.854 71.6137 38.9182 71.2767L38.7076 71.4332C38.4107 71.6578 38.0617 71.8123 37.6605 71.8965C37.4519 71.9446 37.2614 71.9687 37.0889 71.9687C36.4069 71.9687 35.8653 71.728 35.4641 71.2466C35.067 70.7612 34.8684 70.1835 34.8684 69.5136C34.8684 68.6591 35.1051 67.955 35.5785 67.4014C36.0559 66.8478 36.6656 66.571 37.4078 66.571ZM44.1079 71.4211C44.3807 71.4211 44.6615 71.3449 44.9503 71.1925C45.2432 71.04 45.4097 70.9116 45.4498 70.8073C45.4658 70.7672 45.4799 70.6188 45.4919 70.362C45.504 70.1013 45.51 69.8907 45.51 69.7302C45.51 68.8958 45.3696 68.2178 45.0888 67.6963C44.8079 67.1748 44.3967 66.914 43.8552 66.914C43.462 66.914 43.1431 67.0925 42.8984 67.4496C42.6577 67.8066 42.5373 68.3402 42.5373 69.0502C42.5373 69.6359 42.6497 70.1775 42.8743 70.675C43.103 71.1724 43.5142 71.4211 44.1079 71.4211ZM43.9394 66.571C44.822 66.571 45.504 66.9241 45.9854 67.6301C46.4668 68.3321 46.7075 69.1164 46.7075 69.9829C46.7075 70.5927 46.5931 71.2125 46.3645 71.8423C46.1358 72.4722 45.8028 73.0338 45.3656 73.5272C44.8561 74.0969 44.2102 74.5201 43.4279 74.7969C42.9907 74.9534 42.4391 75.0737 41.7731 75.158L41.7129 74.9173C42.1302 74.821 42.4772 74.7187 42.754 74.6104C43.2514 74.4138 43.6506 74.1731 43.9514 73.8883C44.3767 73.4831 44.7157 73.0318 44.9684 72.5344C45.2251 72.0329 45.3856 71.6137 45.4498 71.2767L45.2392 71.4332C44.9423 71.6578 44.5933 71.8123 44.1921 71.8965C43.9835 71.9446 43.793 71.9687 43.6205 71.9687C42.9385 71.9687 42.3969 71.728 41.9958 71.2466C41.5986 70.7612 41.4 70.1835 41.4 69.5136C41.4 68.6591 41.6367 67.955 42.1101 67.4014C42.5875 66.8478 43.1973 66.571 43.9394 66.571ZM50.6636 74.6645C51.1249 74.6645 51.4739 74.5362 51.7106 74.2794C51.9473 74.0227 52.0657 73.7017 52.0657 73.3166C52.0657 72.8794 51.9393 72.5263 51.6866 72.2576C51.4378 71.9848 50.9243 71.5736 50.1461 71.024C49.8011 71.2406 49.5504 71.5214 49.3939 71.8664C49.2374 72.2114 49.1592 72.5444 49.1592 72.8653C49.1592 73.4149 49.2996 73.8522 49.5804 74.1771C49.8653 74.5021 50.2263 74.6645 50.6636 74.6645ZM50.7418 70.0672C51.1189 69.8024 51.3797 69.5798 51.5241 69.3992C51.7728 69.0903 51.8972 68.7173 51.8972 68.28C51.8972 67.8989 51.7788 67.5759 51.5421 67.3112C51.3095 67.0424 50.9544 66.908 50.477 66.908C50.108 66.908 49.8031 67.0243 49.5624 67.257C49.3217 67.4897 49.2013 67.7725 49.2013 68.1055C49.2013 68.4826 49.3417 68.8336 49.6226 69.1585C49.9074 69.4795 50.2805 69.7824 50.7418 70.0672ZM49.8151 70.7652C49.2856 70.34 48.9245 70.001 48.732 69.7483C48.4351 69.3631 48.2867 68.9379 48.2867 68.4726C48.2867 67.943 48.5053 67.4937 48.9426 67.1246C49.3839 66.7556 49.9555 66.571 50.6576 66.571C51.3034 66.571 51.8169 66.7455 52.198 67.0945C52.5792 67.4436 52.7697 67.8487 52.7697 68.3101C52.7697 68.7794 52.5751 69.2007 52.186 69.5738C51.9614 69.7864 51.5983 70.0311 51.0968 70.3079C51.7788 70.8134 52.2662 71.2546 52.5591 71.6317C52.856 72.0048 53.0044 72.4461 53.0044 72.9556C53.0044 73.5333 52.7858 74.0187 52.3485 74.4118C51.9152 74.805 51.3335 75.0015 50.6034 75.0015C49.9495 75.0015 49.3879 74.821 48.9185 74.46C48.4532 74.0949 48.2205 73.6155 48.2205 73.0218C48.2205 72.5123 48.383 72.063 48.7079 71.6739C48.9205 71.4211 49.2896 71.1182 49.8151 70.7652Z" fill="#FFECD8"/>
<rect x="3.04869" y="3.67002" width="74.555" height="94.6598" rx="37.2775" stroke="black" stroke-width="5.44503"/>
<path d="M10.5916 68.7847C10.3546 68.9713 10.1778 69.1581 10.0611 69.3453C9.85766 69.6714 9.8118 70.011 9.92356 70.3639C9.98408 70.5549 10.0967 70.7005 10.2614 70.8007C10.4268 70.9028 10.6176 70.9196 10.8341 70.851C11.029 70.7893 11.1764 70.6654 11.2762 70.4793C11.3389 70.3586 11.4152 70.1221 11.5052 69.7696L11.6619 69.1569C11.7106 68.972 11.7702 68.818 11.8406 68.6948C11.976 68.4653 12.1578 68.3144 12.3859 68.2422C12.6881 68.1465 12.9714 68.1672 13.2358 68.3045C13.5002 68.4417 13.6849 68.676 13.7899 69.0075C13.8331 69.144 13.8509 69.3185 13.8431 69.5312C13.838 69.7452 13.8397 69.8659 13.8484 69.8932C13.8718 69.9673 13.9054 70.0124 13.9492 70.0286C13.9935 70.0467 14.0503 70.0534 14.1196 70.0486L14.1585 70.1715L12.9251 70.7069L12.8797 70.5636C13.2329 70.3445 13.4513 70.1026 13.5349 69.838C13.619 69.5754 13.6277 69.3388 13.5611 69.1282C13.5092 68.9644 13.4151 68.8366 13.2787 68.7446C13.1449 68.654 12.9922 68.6358 12.8206 68.6902C12.6666 68.739 12.5498 68.8274 12.4702 68.9556C12.3887 69.0844 12.3187 69.2664 12.2602 69.5016L12.1023 70.1308C12.0039 70.5245 11.8912 70.8155 11.7641 71.0038C11.6345 71.1907 11.4528 71.3212 11.2188 71.3953C10.9049 71.4947 10.605 71.4588 10.3191 71.2876C10.0338 71.1184 9.83282 70.8495 9.71611 70.481C9.65746 70.2958 9.63111 70.0907 9.63709 69.8657C9.64368 69.6427 9.64234 69.5165 9.63308 69.4873C9.61085 69.4171 9.57428 69.3761 9.52336 69.3643C9.47305 69.3545 9.42229 69.3534 9.37108 69.3611L9.3294 69.2295L10.548 68.6472L10.5916 68.7847Z" fill="#FFECD8"/>
<path d="M12.8481 72.6879C12.2538 72.9765 11.8709 73.3069 11.6992 73.679C11.5294 74.0502 11.5271 74.406 11.6924 74.7463C11.8541 75.0793 12.1301 75.2965 12.5204 75.398C12.9135 75.5004 13.4144 75.4038 14.0234 75.108C14.6397 74.8087 15.0268 74.4729 15.1848 74.1006C15.3427 73.7284 15.3422 73.3785 15.1832 73.051C15.0188 72.7125 14.7368 72.4948 14.3373 72.3978C13.9405 72.3017 13.4441 72.3984 12.8481 72.6879ZM12.5371 72.0477C13.1406 71.7547 13.7164 71.7092 14.2647 71.9112C14.7666 72.0972 15.1408 72.4441 15.3874 72.9519C15.6349 73.4615 15.6756 73.9714 15.5097 74.4817C15.3304 75.0349 14.9391 75.4579 14.3356 75.751C13.723 76.0485 13.1408 76.0903 12.589 75.8763C12.0954 75.684 11.7285 75.3404 11.4882 74.8455C11.2309 74.3157 11.1967 73.7889 11.3857 73.2651C11.5793 72.7323 11.9632 72.3265 12.5371 72.0477Z" fill="#FFECD8"/>
<path d="M13.0408 77.4028C13.2148 77.5975 13.3598 77.6983 13.4758 77.7051C13.5936 77.7107 13.7866 77.6162 14.0548 77.4218L16.1214 75.9239C16.3053 75.7907 16.4035 75.6753 16.4161 75.5777C16.4304 75.479 16.3681 75.3233 16.2292 75.1108L16.3236 75.0424L17.0527 76.0484L15.3402 79.0855L18.7216 78.3509L19.4562 79.3644L19.3618 79.4328C19.2117 79.2536 19.0887 79.1571 18.9928 79.1433C18.8986 79.1282 18.7612 79.1861 18.5807 79.317L16.3179 80.9571C16.1324 81.0915 16.033 81.2052 16.0196 81.2983C16.0079 81.3901 16.0621 81.5364 16.1824 81.7372L16.0905 81.8038L15.0571 80.3781L15.149 80.3115C15.3144 80.5048 15.4432 80.6059 15.5355 80.6148C15.6307 80.6241 15.7859 80.5507 16.0012 80.3947L18.2864 78.7384L14.4468 79.536L14.3964 79.4665L16.2462 76.1745L14.2169 77.6454C13.9387 77.847 13.7867 78.019 13.7611 78.1613C13.7449 78.2539 13.7934 78.3993 13.9068 78.5976L13.8149 78.6642L12.9489 77.4694L13.0408 77.4028Z" fill="#FFECD8"/>
<path d="M16.717 82.1875C16.899 82.3321 17.0341 82.4077 17.1223 82.4142C17.2135 82.4207 17.3423 82.3394 17.5087 82.1703L19.4691 80.1785C19.6254 80.0196 19.7032 79.8925 19.7025 79.797C19.7032 79.7001 19.6262 79.5641 19.4715 79.3889L19.5532 79.3058L21.932 81.6471L21.3147 82.3049L21.201 82.193C21.3582 81.9575 21.4276 81.7733 21.4092 81.6404C21.3908 81.5075 21.2504 81.3119 20.988 81.0537L20.3802 80.4554C20.3146 80.3909 20.263 80.3617 20.2255 80.3677C20.1908 80.3738 20.1448 80.406 20.0874 80.4643L19.104 81.4635L19.7927 82.1413C19.9837 82.3293 20.1333 82.4206 20.2418 82.4154C20.3502 82.4102 20.5058 82.3367 20.7086 82.1948L20.8135 82.2981L19.7935 83.3344L19.6886 83.2311C19.8258 83.0247 19.8954 82.8679 19.8974 82.7609C19.9009 82.6524 19.8079 82.5049 19.6184 82.3184L18.9297 81.6406L17.8387 82.7491C17.7512 82.838 17.7272 82.9177 17.7668 82.9883C17.8079 83.0602 17.9684 83.234 18.2482 83.5094C18.5514 83.8078 18.8074 83.9952 19.0163 84.0716C19.2266 84.1466 19.5148 84.1132 19.881 83.9715L20.0056 84.0942L19.0577 84.6505L16.6374 82.2684L16.717 82.1875Z" fill="#FFECD8"/>
<path d="M23.5615 82.9231L23.4951 83.019C23.3902 82.9513 23.3107 82.91 23.2565 82.8948C23.1593 82.8699 23.0846 82.8953 23.0322 82.9709C23.0089 83.0046 22.9904 83.0403 22.9767 83.0781C22.9647 83.117 22.9505 83.1681 22.9341 83.2313L22.3366 85.6905L23.8955 84.613L24.082 83.8205C24.1158 83.6748 24.1006 83.5511 24.0366 83.4496C23.999 83.3888 23.9262 83.3197 23.818 83.2424L23.8844 83.1466L25.2668 84.1032L25.2004 84.199C25.0698 84.1111 24.9742 84.0587 24.9138 84.0418C24.8167 84.0168 24.7373 84.0489 24.6756 84.138C24.6547 84.1683 24.6394 84.1975 24.6298 84.2257C24.6214 84.2523 24.6062 84.3101 24.5843 84.3994L23.9903 86.8535L25.8493 85.5472C25.955 85.4735 26.0413 85.4027 26.1083 85.3347C26.147 85.2968 26.1756 85.2643 26.1942 85.2374C26.2606 85.1416 26.2611 85.0437 26.1959 84.9439C26.1606 84.8871 26.0936 84.8221 25.9951 84.7489L26.0614 84.6531L27.0856 85.3618L27.0193 85.4577C26.9174 85.4071 26.8323 85.3793 26.7637 85.3741C26.6425 85.3624 26.5187 85.4011 26.3924 85.4902L24.7793 86.6459L24.1547 87.0904L23.195 87.8141L23.1168 87.7599L23.3211 87.0172L23.8054 85.002L21.4973 86.6392L21.4191 86.5851L21.7919 85.2539L22.1841 83.7383C22.3453 83.1136 22.4287 82.7199 22.4343 82.5572C22.4428 82.394 22.3743 82.2558 22.2288 82.1426L22.2951 82.0468L23.5615 82.9231Z" fill="#FFECD8"/>
<path d="M25.4353 88.9139C25.6699 88.9907 25.8282 89.0129 25.9102 88.9804C25.9931 88.946 26.0905 88.8049 26.2025 88.557L27.3228 86.0772C27.4154 85.8722 27.444 85.7246 27.4084 85.6345C27.3747 85.5452 27.2559 85.4455 27.052 85.3355L27.1 85.2292L28.6907 85.9479L28.6427 86.0541C28.4254 85.9739 28.2711 85.9502 28.18 85.9831C28.0888 86.016 27.9969 86.1349 27.9043 86.3399L27.4004 87.4554L29.1365 88.2397L29.6404 87.1243C29.733 86.9193 29.7625 86.7721 29.7288 86.6828C29.6951 86.5935 29.5753 86.4934 29.3696 86.3825L29.4176 86.2763L31.0083 86.995L30.9603 87.1012C30.743 87.021 30.5887 86.9973 30.4976 87.0301C30.4083 87.0639 30.3173 87.1832 30.2247 87.3882L29.0741 89.9351C28.9798 90.1438 28.9499 90.2919 28.9845 90.3794C29.0218 90.4658 29.1415 90.5659 29.3437 90.6796L29.2969 90.7831L27.7062 90.0644L27.7529 89.961C27.9886 90.0405 28.1469 90.0627 28.2279 90.0274C28.3107 89.9931 28.4081 89.8519 28.5201 89.604L29.0228 88.4914L27.2867 87.707L26.7537 88.8868C26.6594 89.0955 26.6305 89.244 26.6669 89.3323C26.7033 89.4206 26.823 89.5207 27.0261 89.6326L26.9793 89.736L25.3886 89.0174L25.4353 88.9139Z" fill="#FFECD8"/>
<path d="M30.1117 90.8972C30.3409 90.9359 30.4957 90.9368 30.5761 90.8998C30.659 90.8615 30.7325 90.7281 30.7965 90.4996L31.55 87.8084C31.6101 87.5937 31.6167 87.4448 31.5699 87.3616C31.5237 87.2765 31.3905 87.1946 31.1704 87.116L31.2018 87.0037L34.4159 87.9036L34.1934 88.7779L34.0398 88.7349C34.0636 88.4527 34.0353 88.2579 33.955 88.1505C33.8746 88.043 33.6572 87.9397 33.3027 87.8404L32.4815 87.6105C32.3928 87.5856 32.3336 87.585 32.3036 87.6085C32.2762 87.6305 32.2515 87.6809 32.2294 87.7597L31.8514 89.1097L32.782 89.3703C33.04 89.4425 33.2152 89.4502 33.3076 89.3932C33.4 89.3362 33.5006 89.1967 33.6096 88.9744L33.7514 89.0141L33.3593 90.4144L33.2175 90.3747C33.2379 90.1276 33.223 89.9568 33.1731 89.8621C33.1237 89.7654 32.971 89.6813 32.715 89.6096L31.7844 89.349L31.3651 90.8468C31.3314 90.9669 31.349 91.0483 31.4178 91.0909C31.4885 91.1341 31.713 91.2086 32.0911 91.3145C32.5007 91.4292 32.8154 91.4695 33.0352 91.4354C33.2556 91.3994 33.4918 91.2309 33.7438 90.9298L33.9122 90.977L33.3513 91.9222L30.0811 91.0065L30.1117 90.8972Z" fill="#FFECD8"/>
<path d="M35.9527 90.1746C36.4033 90.2145 36.7297 90.208 36.9322 90.1551C37.28 90.0605 37.4774 89.8256 37.5244 89.4501C37.5697 89.0889 37.4524 88.8238 37.1727 88.6548C37.0233 88.5639 36.8177 88.5021 36.5559 88.4693C36.3794 88.4472 36.2692 88.4468 36.2253 88.4681C36.1837 88.4876 36.157 88.544 36.1453 88.6374L35.9527 90.1746ZM34.5307 92.0493C34.7729 92.057 34.9279 92.029 34.9957 91.9654C35.0634 91.9017 35.1136 91.74 35.1461 91.4802L35.4843 88.7803C35.5118 88.5611 35.4962 88.4138 35.4377 88.3385C35.3814 88.2614 35.2417 88.1995 35.0188 88.1531L35.0333 88.0374L36.7592 88.2536C37.1184 88.2986 37.412 88.3818 37.64 88.5031C38.0729 88.7325 38.2604 89.0786 38.2025 89.5413C38.1636 89.8517 38.0322 90.0775 37.8085 90.2185C37.5867 90.3597 37.299 90.435 36.9454 90.4442L38.032 92.185C38.099 92.2923 38.1692 92.3732 38.2428 92.4278C38.3163 92.4824 38.4142 92.5235 38.5365 92.5512L38.5224 92.6638L37.5179 92.5379L36.2727 90.4342L35.9238 90.4059L35.7701 91.6326C35.7411 91.864 35.7572 92.0154 35.8183 92.087C35.8817 92.1567 36.0298 92.2165 36.2627 92.2663L36.2486 92.3789L34.5166 92.1619L34.5307 92.0493Z" fill="#FFECD8"/>
<path d="M39.43 92.5538C39.6604 92.5238 39.8087 92.4794 39.8748 92.4205C39.9429 92.3596 39.9742 92.2105 39.9686 91.9733L39.9022 89.1794C39.8969 88.9566 39.8597 88.8122 39.7907 88.7463C39.7216 88.6784 39.5703 88.639 39.3368 88.6282L39.334 88.5117L42.6708 88.4324L42.7137 89.3336L42.5542 89.3374C42.4944 89.0606 42.4104 88.8826 42.3021 88.8033C42.1939 88.724 41.9557 88.6888 41.5877 88.6975L40.7351 88.7178C40.6431 88.7199 40.5862 88.7366 40.5645 88.7678C40.5447 88.797 40.5358 88.8524 40.5377 88.9342L40.571 90.3357L41.5371 90.3128C41.8049 90.3064 41.9747 90.2625 42.0464 90.181C42.1181 90.0995 42.1736 89.9366 42.2128 89.6922L42.36 89.6887L42.3945 91.1424L42.2473 91.1459C42.1945 90.9038 42.1304 90.7447 42.0549 90.6687C41.9794 90.5907 41.8088 90.5549 41.543 90.5612L40.5769 90.5842L40.6138 92.1391C40.6168 92.2638 40.6574 92.3365 40.7356 92.3571C40.8159 92.3777 41.0523 92.3833 41.4449 92.374C41.8701 92.3639 42.1829 92.3105 42.3831 92.2137C42.5833 92.1148 42.7599 91.8846 42.9129 91.5229L43.0877 91.5188L42.8277 92.5867L39.4327 92.6673L39.43 92.5538Z" fill="#FFECD8"/>
<path d="M46.7508 89.8816C46.9157 90.5213 47.1634 90.9622 47.4941 91.2043C47.8242 91.4445 48.1724 91.5174 48.5388 91.423C48.8973 91.3306 49.165 91.1032 49.3419 90.7408C49.5203 90.3759 49.525 89.8657 49.3561 89.2102C49.1851 88.5467 48.9329 88.1006 48.5994 87.8719C48.2659 87.6431 47.9229 87.5742 47.5703 87.6651C47.2059 87.759 46.9365 87.9921 46.7622 88.3644C46.5892 88.7342 46.5855 89.2399 46.7508 89.8816ZM46.0616 90.0592C45.8942 89.4096 45.964 88.8362 46.2709 88.3389C46.5528 87.884 46.9671 87.5861 47.5137 87.4452C48.0623 87.3038 48.5702 87.3651 49.0374 87.6291C49.5439 87.9146 49.8809 88.3822 50.0483 89.0318C50.2182 89.6913 50.1436 90.2702 49.8243 90.7685C49.5378 91.2141 49.1282 91.5055 48.5955 91.6428C48.0251 91.7898 47.502 91.7187 47.0262 91.4295C46.5424 91.1338 46.2209 90.6771 46.0616 90.0592Z" fill="#FFECD8"/>
<path d="M51.3755 90.6092C51.6028 90.4807 51.7321 90.3605 51.7635 90.2485C51.7941 90.1347 51.743 89.926 51.6101 89.6225L50.4997 87.0846L50.3804 87.0263C50.2526 86.9639 50.1539 86.9346 50.0841 86.9383C50.0153 86.9394 49.9211 86.9639 49.8014 87.0118L49.7547 86.905L50.7412 86.4733L54.1712 88.2742L53.3288 86.349C53.1902 86.0324 53.0532 85.8468 52.9177 85.7922C52.8288 85.7574 52.6744 85.777 52.4545 85.8509L52.4078 85.7441L53.7596 85.1526L53.8063 85.2594C53.597 85.3778 53.4742 85.4951 53.438 85.6114C53.4018 85.7277 53.4497 85.9367 53.5817 86.2383L54.9074 89.268L54.809 89.3111L50.8817 87.2691L51.8631 89.5118C52.0008 89.8266 52.1365 90.0117 52.2701 90.067C52.3571 90.1026 52.5095 90.0862 52.7273 90.0177L52.7728 90.1217L51.421 90.7132L51.3755 90.6092Z" fill="#FFECD8"/>
<path d="M58.1126 87.1606C58.2831 87.0028 58.3783 86.8807 58.3982 86.7944C58.4184 86.7053 58.3576 86.5657 58.2158 86.3755L56.5447 84.1355C56.4114 83.9568 56.2975 83.8606 56.2031 83.8469C56.1074 83.8315 55.9612 83.887 55.7646 84.0133L55.6948 83.9198L58.3701 81.924L58.9266 82.6341L58.7988 82.7295C58.5898 82.5383 58.4183 82.4418 58.2841 82.4398C58.15 82.4378 57.9354 82.5469 57.6403 82.767L56.9567 83.277C56.883 83.332 56.8462 83.3785 56.8465 83.4166C56.8473 83.4518 56.8721 83.5021 56.921 83.5677L57.7593 84.6914L58.5339 84.1136C58.7486 83.9534 58.8616 83.8193 58.873 83.7113C58.8843 83.6034 58.8352 83.4384 58.7257 83.2164L58.8438 83.1284L59.7133 84.2939L59.5952 84.382C59.412 84.215 59.2676 84.1224 59.1622 84.1041C59.0555 84.0842 58.8955 84.1538 58.6824 84.3128L57.9079 84.8906L58.8379 86.1372C58.9125 86.2372 58.9877 86.273 59.0634 86.2446C59.1408 86.2149 59.3369 86.0827 59.6516 85.8479C59.9926 85.5935 60.2167 85.3689 60.3239 85.1741C60.43 84.9776 60.4407 84.6876 60.3562 84.3041L60.4964 84.1996L60.9024 85.2209L58.1804 87.2516L58.1126 87.1606Z" fill="#FFECD8"/>
<path d="M62.5811 81.3662L60.8388 80.6688L61.5665 82.3949L62.5811 81.3662ZM61.8256 84.43L61.7448 84.3503C61.8452 84.2224 61.8862 84.0934 61.868 83.9633C61.8512 83.8319 61.7472 83.5339 61.556 83.0696L60.2808 79.972L60.367 79.8846L64.0014 81.2718C64.2435 81.3641 64.4065 81.4085 64.4904 81.4051C64.5742 81.3987 64.6751 81.3503 64.7931 81.2598L64.8739 81.3395L63.7515 82.4774L63.6707 82.3977C63.7883 82.2552 63.8578 82.1571 63.8791 82.1034C63.899 82.0484 63.8761 81.9885 63.8106 81.9239C63.7888 81.9023 63.743 81.8715 63.6733 81.8315C63.6036 81.7915 63.5253 81.7545 63.4383 81.7203L62.8249 81.4816L61.6702 82.6523C61.848 83.0574 61.9582 83.304 62.0007 83.3919C62.0432 83.4769 62.0834 83.5381 62.1213 83.5755C62.197 83.6501 62.2796 83.6713 62.369 83.6388C62.4238 83.6182 62.5073 83.5598 62.6194 83.4636L62.7003 83.5433L61.8256 84.43Z" fill="#FFECD8"/>
<path d="M64.2769 78.5002C64.5267 78.1232 64.6765 77.833 64.7264 77.6298C64.809 77.279 64.6965 76.9934 64.3888 76.7732C64.0928 76.5613 63.8038 76.5381 63.5219 76.7035C63.3709 76.7916 63.2186 76.9429 63.065 77.1574C62.9615 77.3021 62.9086 77.3988 62.9064 77.4475C62.9037 77.4934 62.9407 77.5437 63.0172 77.5985L64.2769 78.5002ZM65.2476 80.6437C65.3698 80.4344 65.419 80.2848 65.3954 80.1949C65.3717 80.105 65.2534 79.9839 65.0405 79.8315L62.8279 78.2477C62.6483 78.1192 62.5114 78.0627 62.4172 78.0783C62.3226 78.091 62.2017 78.1843 62.0546 78.3582L61.9598 78.2904L62.9722 76.876C63.1829 76.5816 63.3959 76.3631 63.6112 76.2204C64.0192 75.9491 64.4128 75.9491 64.792 76.2205C65.0464 76.4026 65.1823 76.6257 65.1996 76.8896C65.2182 77.1518 65.1473 77.4406 64.987 77.7559L67.0351 77.63C67.1614 77.6222 67.266 77.599 67.349 77.5604C67.432 77.5217 67.5148 77.4552 67.5974 77.3609L67.6897 77.427L67.1005 78.2502L64.6576 78.3426L64.4665 78.6359L65.4718 79.3555C65.6614 79.4912 65.8022 79.5492 65.8942 79.5296C65.9858 79.5071 66.1089 79.4053 66.2636 79.2243L66.3559 79.2904L65.3399 80.7098L65.2476 80.6437Z" fill="#FFECD8"/>
<path d="M64.4498 74.6885L66.0663 71.5286L67.0321 71.9848L66.9636 72.1186C66.6315 72.0314 66.3948 72.016 66.2534 72.0723C66.1111 72.1258 65.9571 72.3147 65.7913 72.6388L65.632 72.9501L68.4942 74.4144C68.7108 74.5252 68.8628 74.5605 68.9501 74.5201C69.0355 74.4788 69.1447 74.3486 69.2775 74.1294L69.3785 74.1811L68.5444 75.8115L68.4434 75.7598C68.5462 75.5138 68.5825 75.3463 68.5523 75.2573C68.522 75.1683 68.3858 75.0619 68.1436 74.938L65.347 73.5073L65.1877 73.8186C65.0293 74.1281 64.9659 74.3621 64.9974 74.5207C65.0298 74.6774 65.1817 74.8608 65.4533 75.0709L65.3834 75.2075L64.4498 74.6885Z" fill="#FFECD8"/>
<path d="M70.0484 72.443C70.1008 72.2017 70.1066 72.042 70.0658 71.9637C70.0231 71.8848 69.8727 71.8024 69.6147 71.7164L67.033 70.8565C66.8196 70.7854 66.6699 70.7722 66.5839 70.8168C66.4985 70.8595 66.4115 70.9879 66.323 71.202L66.2124 71.1652L66.764 69.5091L66.8746 69.5459C66.8171 69.7704 66.8094 69.9262 66.8514 70.0135C66.8935 70.1008 67.0212 70.18 67.2347 70.2511L68.396 70.6379L68.998 68.8305L67.8367 68.4437C67.6233 68.3726 67.4739 68.3584 67.3885 68.4011C67.3032 68.4438 67.2159 68.5732 67.1267 68.7892L67.0161 68.7523L67.5677 67.0963L67.6783 67.1331C67.6208 67.3575 67.6131 67.5134 67.6551 67.6007C67.6978 67.6861 67.8259 67.7643 68.0394 67.8354L70.6908 68.7186C70.9082 68.791 71.0585 68.8055 71.1419 68.7621C71.2241 68.7162 71.3113 68.5868 71.4038 68.374L71.5115 68.4099L70.9598 70.066L70.8521 70.0301C70.9071 69.7876 70.9129 69.6279 70.8695 69.5509C70.8268 69.472 70.6764 69.3896 70.4184 69.3036L69.26 68.9178L68.6579 70.7252L69.8862 71.1343C70.1035 71.2067 70.2542 71.2203 70.3382 71.175C70.4223 71.1297 70.5096 71.0003 70.6001 70.7869L70.7078 70.8227L70.1561 72.4788L70.0484 72.443Z" fill="#FFECD8"/>
</svg>
